<svg width="160" height="80" viewBox="0 0 160 80" fill="none" xmlns="http://www.w3.org/2000/svg">
  <defs>
    <linearGradient id="vpGradient" x1="0%" y1="0%" x2="100%" y2="0%">
      <stop offset="0%" style="stop-color:#374151;stop-opacity:1" />
      <stop offset="50%" style="stop-color:#1f2937;stop-opacity:1" />
      <stop offset="100%" style="stop-color:#111827;stop-opacity:1" />
    </linearGradient>
    
    <linearGradient id="waveGradient" x1="0%" y1="0%" x2="100%" y2="0%">
      <stop offset="0%" style="stop-color:#6b7280;stop-opacity:0.3" />
      <stop offset="50%" style="stop-color:#9ca3af;stop-opacity:0.5" />
      <stop offset="100%" style="stop-color:#d1d5db;stop-opacity:0.3" />
    </linearGradient>
  </defs>
  
  <!-- Background wave lines -->
  <g opacity="0.4">
    <!-- Flowing wave behind VP -->
    <path d="M10 35 Q30 25 50 35 Q70 45 90 35 Q110 25 130 35 Q140 40 150 35" 
          stroke="url(#waveGradient)" stroke-width="1.5" fill="none"/>
    <path d="M10 40 Q30 30 50 40 Q70 50 90 40 Q110 30 130 40 Q140 45 150 40" 
          stroke="url(#waveGradient)" stroke-width="1.2" fill="none" opacity="0.7"/>
    <path d="M10 45 Q30 35 50 45 Q70 55 90 45 Q110 35 130 45 Q140 50 150 45" 
          stroke="url(#waveGradient)" stroke-width="1" fill="none" opacity="0.5"/>
  </g>
  
  <!-- VP Letters -->
  <g transform="translate(20, 15)">
    <!-- V Letter -->
    <path d="M15 15 L35 50 L55 15" 
          stroke="url(#vpGradient)" 
          stroke-width="6" 
          fill="none" 
          stroke-linecap="round" 
          stroke-linejoin="round"/>
    
    <!-- P Letter -->
    <g transform="translate(65, 0)">
      <!-- Vertical line -->
      <path d="M0 15 L0 50" 
            stroke="url(#vpGradient)" 
            stroke-width="6" 
            fill="none" 
            stroke-linecap="round"/>
      <!-- Top horizontal and curve -->
      <path d="M0 15 L20 15 Q35 15 35 25 Q35 35 20 35 L0 35" 
            stroke="url(#vpGradient)" 
            stroke-width="6" 
            fill="none" 
            stroke-linecap="round" 
            stroke-linejoin="round"/>
    </g>
  </g>
  
  <!-- Subtle bottom wave decoration -->
  <g opacity="0.3">
    <path d="M20 60 Q40 55 60 60 Q80 65 100 60 Q120 55 140 60" 
          stroke="url(#waveGradient)" stroke-width="1" fill="none"/>
  </g>
</svg>