<svg width="120" height="120" viewBox="0 0 120 120" fill="none" xmlns="http://www.w3.org/2000/svg">
  <!-- Background circle -->
  <circle cx="60" cy="60" r="60" fill="#1a1b3a"/>
  
  <!-- VP text with wave effect -->
  <defs>
    <linearGradient id="waveGradient" x1="0%" y1="0%" x2="100%" y2="0%">
      <stop offset="0%" style="stop-color:#00d4ff;stop-opacity:1" />
      <stop offset="50%" style="stop-color:#0099cc;stop-opacity:1" />
      <stop offset="100%" style="stop-color:#ffffff;stop-opacity:1" />
    </linearGradient>
    
    <linearGradient id="textGradient" x1="0%" y1="0%" x2="100%" y2="0%">
      <stop offset="0%" style="stop-color:#ffffff;stop-opacity:1" />
      <stop offset="100%" style="stop-color:#00d4ff;stop-opacity:1" />
    </linearGradient>
  </defs>
  
  <!-- Wave lines behind VP -->
  <g opacity="0.8">
    <!-- Left wave (V) -->
    <path d="M15 35 Q25 45 35 35 Q45 25 55 35" stroke="url(#waveGradient)" stroke-width="2" fill="none" opacity="0.6"/>
    <path d="M15 40 Q25 50 35 40 Q45 30 55 40" stroke="url(#waveGradient)" stroke-width="2" fill="none" opacity="0.4"/>
    <path d="M15 45 Q25 55 35 45 Q45 35 55 45" stroke="url(#waveGradient)" stroke-width="2" fill="none" opacity="0.3"/>
    
    <!-- Right wave (P) -->
    <path d="M65 35 Q75 45 85 35 Q95 25 105 35" stroke="url(#waveGradient)" stroke-width="2" fill="none" opacity="0.6"/>
    <path d="M65 40 Q75 50 85 40 Q95 30 105 40" stroke="url(#waveGradient)" stroke-width="2" fill="none" opacity="0.4"/>
    <path d="M65 45 Q75 55 85 45 Q95 35 105 45" stroke="url(#waveGradient)" stroke-width="2" fill="none" opacity="0.3"/>
  </g>
  
  <!-- VP Text -->
  <g>
    <!-- V -->
    <path d="M25 30 L35 70 L45 30" stroke="url(#textGradient)" stroke-width="4" fill="none" stroke-linecap="round" stroke-linejoin="round"/>
    
    <!-- P -->
    <g>
      <path d="M55 30 L55 70" stroke="url(#textGradient)" stroke-width="4" fill="none" stroke-linecap="round"/>
      <path d="M55 30 L70 30 Q80 30 80 40 Q80 50 70 50 L55 50" stroke="url(#textGradient)" stroke-width="4" fill="none" stroke-linecap="round" stroke-linejoin="round"/>
    </g>
  </g>
  
  <!-- Bottom wave decoration -->
  <g opacity="0.6">
    <path d="M10 85 Q30 75 50 85 Q70 95 90 85 Q100 80 110 85" stroke="url(#waveGradient)" stroke-width="2" fill="none"/>
    <path d="M10 90 Q30 80 50 90 Q70 100 90 90 Q100 85 110 90" stroke="url(#waveGradient)" stroke-width="1.5" fill="none" opacity="0.7"/>
  </g>
</svg>